{
    "asset" : {
        "generator" : "Khronos glTF Blender I/O v1.4.40",
        "version" : "2.0"
    },
    "scene" : 0,
    "scenes" : [
        {
            "name" : "v_knife_karam",
            "nodes" : [
                0
            ]
        }
    ],
    "nodes" : [
        {
            "mesh" : 0,
            "name" : "v_knife_karam"
        }
    ],
    "materials" : [
        {
            "doubleSided" : true,
            "name" : "karam",
            "pbrMetallicRoughness" : {
                "baseColorFactor" : [
                    0.5310074687004089,
                    0.8645825386047363,
                    0.9139764308929443,
                    1
                ],
                "metallicFactor" : 0,
                "roughnessFactor" : 0.4000000059604645
            }
        }
    ],
    "meshes" : [
        {
            "name" : "v_knife_karam",
            "primitives" : [
                {
                    "attributes" : {
                        "POSITION" : 0,
                        "NORMAL" : 1,
                        "TEXCOORD_0" : 2
                    },
                    "indices" : 3,
                    "material" : 0
                }
            ]
        }
    ],
    "accessors" : [
        {
            "bufferView" : 0,
            "componentType" : 5126,
            "count" : 12488,
            "max" : [
                0.38999098539352417,
                3.221782922744751,
                3.7456610202789307
            ],
            "min" : [
                -0.045809999108314514,
                -2.6662020683288574,
                -0.8668739795684814
            ],
            "type" : "VEC3"
        },
        {
            "bufferView" : 1,
            "componentType" : 5126,
            "count" : 12488,
            "type" : "VEC3"
        },
        {
            "bufferView" : 2,
            "componentType" : 5126,
            "count" : 12488,
            "type" : "VEC2"
        },
        {
            "bufferView" : 3,
            "componentType" : 5123,
            "count" : 41814,
            "type" : "SCALAR"
        }
    ],
    "bufferViews" : [
        {
            "buffer" : 0,
            "byteLength" : 149856,
            "byteOffset" : 0
        },
        {
            "buffer" : 0,
            "byteLength" : 149856,
            "byteOffset" : 149856
        },
        {
            "buffer" : 0,
            "byteLength" : 99904,
            "byteOffset" : 299712
        },
        {
            "buffer" : 0,
            "byteLength" : 83628,
            "byteOffset" : 399616
        }
    ],
    "buffers" : [
        {
            "byteLength" : 483244,
            "uri" : "data:application/octet-stream;base64,"
        }
    ]
}
